# xmcd
#
# Track frame offsets:
#	182
#	13582
#	28807
#	57157
#	70282
#	82882
#	97957
#	117082
#	134632
#	148132
#	163657
#	180232
#	200032
#	216232
#	232057
#	250957
#	270157
#	284557
#	297682
#	308407
#
# Disc length: 4311 seconds
#
# Revision: 1
# Processed by: cddbd v1.5.2PL0 Copyright (c) Steve Scherf et al.
# Submitted via: audiograbber 1.83.01
#
DISCID=2d10d514
DTITLE=Sarah Jory - Introducing
DYEAR=1995
DGENRE=Country
TTITLE0=Deep In The Heart of Texas
TTITLE1=Somewhere Between
TTITLE2=Orange Blossom Special
TTITLE3=Funny Face
TTITLE4=Jealous Heart
TTITLE5=Just Out Of Reach
TTITLE6=She Believes In Me
TTITLE7=Why Me Lord
TTITLE8=Highway Forty Blues
TTITLE9=Dear God
TTITLE10=Careless Hands
TTITLE11=Faded Love
TTITLE12=Cold Cold Heart
TTITLE13=It Is No secret
TTITLE14=In The Garden
TTITLE15=How Great Thou Art
TTITLE16=City Lights
TTITLE17=Jones On The Jukebox
TTITLE18=Remington Ride
TTITLE19=The Old Rugged Cross
EXTD=
EXTT0=
EXTT1=
EXTT2=
EXTT3=
EXTT4=
EXTT5=
EXTT6=
EXTT7=
EXTT8=
EXTT9=
EXTT10=
EXTT11=
EXTT12=
EXTT13=
EXTT14=
EXTT15=
EXTT16=
EXTT17=
EXTT18=
EXTT19=
PLAYORDER=
